<svg id="appstore" xmlns="http://www.w3.org/2000/svg" width="118.991" height="32" viewBox="0 0 118.991 32">
  <g id="footer">
    <g id="Download_on_the_App_Store_Badge_TR_wht_RGB_100217" transform="translate(0 0)">
      <g id="Group-8" transform="translate(36.683 3.568)">
        <g id="_Group_" transform="translate(27.499 19.143)">
          <path id="Path" d="M28.5,5.223h1.07v.833h.119A1.458,1.458,0,0,1,31.355,5.1a1.6,1.6,0,0,1,1.427.595,1.759,1.759,0,0,1,.476,1.546v3.568h-1.07V7.482c0-.952-.357-1.308-1.189-1.308a1.351,1.351,0,0,0-.952.357,1.454,1.454,0,0,0-.357,1.07v3.33h-1.07V5.223Z" transform="translate(-28.5 -2.766)" fill="#404040"/>
          <path id="Shape_1_" d="M33.7,8.277c0-1.784.952-2.855,2.379-2.855a1.768,1.768,0,0,1,1.665.952h.119V3.4h1.07v7.731h-1.07V10.3h-.119a2.1,2.1,0,0,1-1.784.952C34.533,11.25,33.7,10.061,33.7,8.277Zm1.07,0c0,1.189.595,1.9,1.546,1.9s1.546-.714,1.546-1.9-.595-1.9-1.546-1.9a1.746,1.746,0,0,0-1.546,1.9Z" transform="translate(-27.515 -3.084)" fill="#404040"/>
          <path id="Shape_2_" d="M39.5,3.926a.848.848,0,0,1,.357-.714.733.733,0,0,1,.833.119.7.7,0,0,1,.119.833.652.652,0,0,1-.714.476c-.238,0-.357,0-.476-.238C39.5,4.283,39.5,4.164,39.5,3.926Zm.119,1.665h1.07v5.59h-1.07Z" transform="translate(-26.416 -3.134)" fill="#404040"/>
          <path id="Path_1_" d="M42,5.219h1.07v.833h.119A1.594,1.594,0,0,1,44.736,5.1h.476V6.17H44.5a1.351,1.351,0,0,0-.952.357,1.468,1.468,0,0,0-.476.952v3.33H42Z" transform="translate(-25.943 -2.762)" fill="#404040"/>
          <path id="Shape_3_" d="M45.6,3.926a.848.848,0,0,1,.357-.714.733.733,0,0,1,.833.119.7.7,0,0,1,.119.833.8.8,0,0,1-.714.476c-.238,0-.357,0-.476-.238C45.719,4.283,45.6,4.164,45.6,3.926Zm.238,1.665h1.07v5.59h-1.07Z" transform="translate(-25.261 -3.134)" fill="#404040"/>
          <path id="Path_2_" d="M48.2,5.223h1.07v.833h.119A1.458,1.458,0,0,1,51.055,5.1a1.6,1.6,0,0,1,1.427.595,1.759,1.759,0,0,1,.476,1.546v3.568h-1.07V7.482c0-.952-.357-1.308-1.189-1.308a1.351,1.351,0,0,0-.952.357,1.454,1.454,0,0,0-.357,1.07v3.33h-1.07V5.223Z" transform="translate(-24.768 -2.766)" fill="#404040"/>
        </g>
        <g id="Group_1_" transform="translate(0)">
          <path id="Shape_4_" d="M14.783,10.072H9.549L8.36,13.759H6.1L10.977.2h2.26l4.877,13.559h-2.26ZM10.144,8.407h4.163L12.285,2.46h0Z" transform="translate(-6.1 0.038)" fill="#404040"/>
          <path id="Shape_5_" d="M26.678,8.2c0,3.093-1.665,5.115-4.163,5.115a3.131,3.131,0,0,1-3.093-1.784h0V16.4H17.4V3.319h1.9V4.984h0A3.747,3.747,0,0,1,22.515,3.2C25.012,3.2,26.678,5.1,26.678,8.2Zm-2.022,0c0-2.022-1.07-3.33-2.617-3.33S19.422,6.174,19.422,8.2s1.07,3.33,2.617,3.33,2.617-1.308,2.617-3.33Z" transform="translate(-3.96 0.606)" fill="#404040"/>
          <path id="Shape_6_" d="M35.878,8.2c0,3.093-1.665,5.115-4.163,5.115a3.131,3.131,0,0,1-3.093-1.784h0V16.4H26.6V3.319h2.022V4.984h0A3.747,3.747,0,0,1,31.833,3.2C34.212,3.2,35.878,5.1,35.878,8.2Zm-2.141,0c0-2.022-1.07-3.33-2.617-3.33S28.5,6.174,28.5,8.2s1.07,3.33,2.617,3.33,2.617-1.308,2.617-3.33Z" transform="translate(-2.217 0.606)" fill="#404040"/>
          <path id="Path_3_" d="M40.7,9.991c.119,1.308,1.427,2.26,3.211,2.26,1.665,0,2.974-.833,2.974-2.141,0-1.07-.714-1.665-2.5-2.141l-1.784-.476q-3.568-.714-3.568-3.568c0-2.379,2.022-3.925,5-3.925,2.855,0,4.877,1.665,4.877,3.925H46.888c-.119-1.308-1.189-2.141-2.855-2.141S41.3,2.617,41.3,3.806c0,.952.714,1.546,2.5,1.9l1.546.357c2.736.714,3.925,1.784,3.925,3.806,0,2.5-2.022,4.163-5.233,4.163-2.974,0-5-1.546-5.233-4.044Z" transform="translate(0.094)" fill="#404040"/>
          <path id="Path_4_" d="M51.63,1.3V3.679h1.9V5.344h-1.9v5.471c0,.833.357,1.189,1.189,1.189h.714v1.546a3.293,3.293,0,0,1-1.07.119c-2.022,0-2.736-.714-2.736-2.617V5.225H48.3V3.679h1.427V1.3Z" transform="translate(1.894 0.246)" fill="#404040"/>
          <path id="Shape_7_" d="M53.6,8.215c0-3.093,1.784-5.115,4.639-5.115S63,5,63,8.215c0,3.093-1.784,5.115-4.758,5.115C55.5,13.329,53.6,11.307,53.6,8.215Zm7.374,0c0-2.141-.952-3.449-2.617-3.449s-2.617,1.308-2.617,3.449.952,3.449,2.617,3.449,2.617-1.308,2.617-3.449Z" transform="translate(2.898 0.587)" fill="#404040"/>
          <path id="Path_5_" d="M62.9,3.319h1.9V4.984h0A2.428,2.428,0,0,1,67.182,3.2a1.509,1.509,0,0,1,.714.119v1.9a2.319,2.319,0,0,0-.952-.119A2.261,2.261,0,0,0,65.4,5.7a2.007,2.007,0,0,0-.476,1.665v5.828H62.9V3.319Z" transform="translate(4.659 0.606)" fill="#404040"/>
          <path id="Shape_8_" d="M76.521,10.237c-.238,1.784-2.022,2.974-4.282,2.974-2.855,0-4.639-1.9-4.639-5S69.384,3.1,72.239,3.1c2.736,0,4.52,1.9,4.52,4.877V8.69H69.741v.119a2.663,2.663,0,0,0,.714,2.022,2.45,2.45,0,0,0,2.022.833,2.176,2.176,0,0,0,2.26-1.427Zm-6.9-2.974h5a2.523,2.523,0,0,0-4.282-1.784,2.623,2.623,0,0,0-.714,1.784Z" transform="translate(5.55 0.587)" fill="#404040"/>
          <path id="Path_9_" d="M7.2,19.155,7.795,16.3H8.984l-.833,2.855Z" transform="translate(-5.892 3.088)" fill="#404040"/>
          <path id="Shape_12_" d="M8.6,21.3c0-1.784.952-2.855,2.379-2.855a2.1,2.1,0,0,1,1.784.952h0V16.3h1.189v7.731H12.763V23.08h0a1.962,1.962,0,0,1-1.784,1.07C9.552,24.15,8.6,23.08,8.6,21.3Zm1.189,0c0,1.189.595,1.9,1.546,1.9s1.546-.714,1.546-1.9-.595-1.9-1.546-1.9-1.546.714-1.546,1.9Z" transform="translate(-5.626 3.088)" fill="#404040"/>
          <path id="Shape_11_" d="M14,22.163c0-.952.714-1.546,2.141-1.665l1.546-.119V19.9c0-.595-.357-.952-1.07-.952a.98.98,0,0,0-1.189.833h-1.07c0-1.07.952-1.784,2.26-1.784s2.26.714,2.26,1.9v3.925h-1.07v-.952h0a2.211,2.211,0,0,1-1.784,1.07,1.789,1.789,0,0,1-1.308-.476A1.644,1.644,0,0,1,14,22.163Zm3.687-.476v-.476l-1.427.119c-.714,0-1.07.357-1.07.833s.357.833,1.07.833a1.351,1.351,0,0,0,.952-.357,2.391,2.391,0,0,0,.476-.952Z" transform="translate(-4.604 3.41)" fill="#404040"/>
          <path id="Path_8_" d="M19,18.119h1.189v.952h0A1.962,1.962,0,0,1,21.974,18,1.91,1.91,0,0,1,24,20.141v3.687H22.806V20.379c0-.833-.357-1.308-1.189-1.308a1.082,1.082,0,0,0-.952.476,1.66,1.66,0,0,0-.357,1.07v3.211H19.119V18.119Z" transform="translate(-3.656 3.41)" fill="#404040"/>
        </g>
      </g>
      <g id="_Group_2">
        <path id="Combined-Shape" d="M19.906,7.131h.357a7.68,7.68,0,0,1,5.828,3.211,7.207,7.207,0,0,0,.833,12.608,14.412,14.412,0,0,1-2.141,4.52h0l-.357.476c-1.189,1.784-2.5,3.449-4.4,3.449-2.022,0-2.736-1.308-5.115-1.308S11.818,31.277,9.8,31.4s-3.568-2.141-4.877-4.044C2.3,23.307.161,16.052,3.016,11.175A7.847,7.847,0,0,1,9.439,7.131c2.022,0,3.925,1.427,5.233,1.427,1.189,0,3.568-1.784,5.947-1.427ZM20.382-.6a7.192,7.192,0,0,1-1.665,5.115,6.038,6.038,0,0,1-4.639,2.26,7.079,7.079,0,0,1,1.665-5A7.631,7.631,0,0,1,20.382-.6Z" transform="translate(-1.659 0.6)" fill="#404040"/>
      </g>
    </g>
    <path id="Shape_13_" d="M233.9,467.926a.848.848,0,0,1,.357-.714.733.733,0,0,1,.833.119.7.7,0,0,1,.119.833.8.8,0,0,1-.714.476c-.238,0-.357,0-.476-.238C234.019,468.283,233.9,468.045,233.9,467.926Zm.119,1.665h1.07v5.59h-1.07Z" transform="translate(-172.953 -444.376)" fill="#404040"/>
  </g>
</svg>
