<svg id="googleplay" xmlns="http://www.w3.org/2000/svg" width="122.707" height="32" viewBox="0 0 122.707 32">
  <path id="Fill-5" d="M113.546,24.566h1.9V11.892h-1.9Zm16.937-8.054-2.132,5.448h-.118l-2.25-5.448h-2.014l3.316,7.7-1.9,4.264H127.4l5.211-11.844-2.132-.118Zm-10.66,6.633c-.592,0-1.421-.355-1.421-1.066,0-.948,1.066-1.3,2.014-1.3a3.924,3.924,0,0,1,1.777.474A2.641,2.641,0,0,1,119.824,23.144Zm.237-6.87a3.441,3.441,0,0,0-3.316,1.9l1.658.711a2.086,2.086,0,0,1,3.79.711v.118a3.828,3.828,0,0,0-2.014-.474c-1.777,0-3.672.948-3.672,2.843a2.845,2.845,0,0,0,3.08,2.724,2.574,2.574,0,0,0,2.369-1.184h.118v.948h1.777V19.709C123.851,17.459,122.193,16.275,120.061,16.275Zm-11.726,1.777h-2.724V13.669h2.724a2.192,2.192,0,1,1,0,4.382Zm0-6.159h-4.5V24.566h1.9V19.828h2.606a3.993,3.993,0,0,0,4.146-3.909A4.088,4.088,0,0,0,108.335,11.892ZM83.7,23.144a2.438,2.438,0,0,1-2.369-2.606A2.438,2.438,0,0,1,83.7,17.933a2.35,2.35,0,0,1,2.25,2.606A2.35,2.35,0,0,1,83.7,23.144Zm2.132-5.922h0a3.375,3.375,0,0,0-2.369-.948,4.266,4.266,0,0,0,0,8.528,2.87,2.87,0,0,0,2.25-.948h.118v.592c0,1.658-.829,2.487-2.25,2.487a2.234,2.234,0,0,1-2.132-1.54l-1.658.711a4.043,4.043,0,0,0,3.79,2.487c2.25,0,4.027-1.3,4.027-4.5v-7.58H85.831S85.831,17.222,85.831,17.222Zm3.08,7.343h1.9V11.892h-1.9Zm4.738-4.145a2.38,2.38,0,0,1,2.25-2.487,1.483,1.483,0,0,1,1.54.948ZM99.452,19a3.966,3.966,0,0,0-3.672-2.724,4.053,4.053,0,0,0-4.027,4.264A4.173,4.173,0,0,0,96.017,24.8a4.125,4.125,0,0,0,3.553-1.9l-1.421-.948a2.488,2.488,0,0,1-2.132,1.184,2.359,2.359,0,0,1-2.132-1.3l5.685-2.369ZM53.733,17.577v1.777h4.382a3.618,3.618,0,0,1-.948,2.25,4.563,4.563,0,0,1-3.316,1.3,4.7,4.7,0,0,1-4.738-4.856A4.778,4.778,0,0,1,53.851,13.2a4.968,4.968,0,0,1,3.316,1.3l1.3-1.3a6.194,6.194,0,0,0-4.619-1.9A6.724,6.724,0,0,0,47.1,17.933a6.724,6.724,0,0,0,6.751,6.633,5.743,5.743,0,0,0,4.619-1.9,5.955,5.955,0,0,0,1.54-4.264,3.651,3.651,0,0,0-.118-1.184H53.733S53.733,17.577,53.733,17.577Zm11.252,5.567a2.438,2.438,0,0,1-2.369-2.606,2.38,2.38,0,1,1,4.738,0A2.438,2.438,0,0,1,64.985,23.144Zm0-6.87a4.264,4.264,0,1,0,4.264,4.264A4.173,4.173,0,0,0,64.985,16.275Zm9.357,6.87a2.438,2.438,0,0,1-2.369-2.606,2.38,2.38,0,1,1,4.738,0A2.438,2.438,0,0,1,74.342,23.144Zm0-6.87a4.264,4.264,0,1,0,4.264,4.264,4.173,4.173,0,0,0-4.264-4.264Z" transform="translate(-9.909 -8.542)" fill="#404040" fill-rule="evenodd"/>
  <g id="Group_1140" data-name="Group 1140">
    <path id="Fill-6" d="M16.292,10.4a2.343,2.343,0,0,0-.592,1.658V37.523a2.343,2.343,0,0,0,.592,1.658l.118.118L30.624,24.85v-.355L16.292,10.4h0" transform="translate(-15.7 -8.708)" fill="#404040" fill-rule="evenodd"/>
    <path id="Fill-7" d="M35.038,28.131,30.3,23.393v-.355L35.038,18.3l5.685,3.316c1.658.948,1.658,2.369,0,3.316l-5.685,3.2h0" transform="translate(-13.007 -7.251)" fill="#404040" fill-rule="evenodd"/>
    <path id="Fill-10" d="M36.388,28.356,31.532,23.5,17.2,37.832c.474.592,1.421.592,2.369.118l16.819-9.594" transform="translate(-15.423 -6.292)" fill="#404040" fill-rule="evenodd"/>
    <path id="Fill-13" d="M36.388,18.954,19.569,9.361a1.761,1.761,0,0,0-2.369.118L31.532,23.811l4.856-4.856" transform="translate(-15.423 -8.971)" fill="#404040" fill-rule="evenodd"/>
  </g>
  <g id="Group_1141" data-name="Group 1141" transform="translate(37.191 24.078)">
    <path id="Fill-16" d="M47.1,31.432h.829V29.3H47.1Z" transform="translate(-47.1 -29.3)" fill="#404040" fill-rule="evenodd"/>
    <path id="Path_411" data-name="Path 411" d="M49,36.051V29.3h2.369a3.3,3.3,0,0,1,1.184.118,2.381,2.381,0,0,1,.948.474,4.254,4.254,0,0,1,.829,1.184,6.99,6.99,0,0,1,.237,1.658,5.945,5.945,0,0,1-.237,1.421,1.784,1.784,0,0,1-.474.948c-.237.237-.355.474-.592.592a5.774,5.774,0,0,1-.829.355H49Zm.829-.829h1.54a2.629,2.629,0,0,0,1.066-.118,2.589,2.589,0,0,0,.592-.355,1.909,1.909,0,0,0,.474-.829,4.258,4.258,0,0,0,.237-1.3,3.137,3.137,0,0,0-.355-1.658,1.592,1.592,0,0,0-.829-.711,2.971,2.971,0,0,0-1.184-.118H49.948v5.093Z" transform="translate(-46.75 -29.3)" fill="#404040"/>
    <path id="Path_412" data-name="Path 412" d="M54.7,36.051V29.3h4.856v.829H55.529v2.132h3.79v.829h-3.79v2.25h4.146v.711Z" transform="translate(-45.698 -29.3)" fill="#404040"/>
    <path id="Path_413" data-name="Path 413" d="M59.9,36.051V29.3h.948L64.4,34.63V29.3h.829v6.751h-.948l-3.553-5.33v5.33Z" transform="translate(-44.739 -29.3)" fill="#404040"/>
    <path id="Path_414" data-name="Path 414" d="M66.5,36.051,69.106,29.3h.948l2.724,6.751H71.83L71,34.038H68.277l-.829,2.014Zm2.014-2.724h2.25l-.711-1.9c-.237-.592-.355-1.066-.474-1.421-.118.474-.237.829-.355,1.3Z" transform="translate(-43.522 -29.3)" fill="#404040"/>
    <path id="Path_415" data-name="Path 415" d="M72.3,36.051V29.3h.948v6.041h3.316v.711Z" transform="translate(-42.452 -29.3)" fill="#404040"/>
    <path id="Path_416" data-name="Path 416" d="M76.8,36.051V29.3h.948v6.751Z" transform="translate(-41.622 -29.3)" fill="#404040"/>
    <path id="Path_417" data-name="Path 417" d="M78.8,36.051V29.3h.948L83.3,34.63V29.3h.829v6.751h-.948l-3.553-5.33v5.33Z" transform="translate(-41.254 -29.3)" fill="#404040"/>
  </g>
</svg>
